<svg width="30" height="30" viewBox="0 0 30 30" fill="none" xmlns="http://www.w3.org/2000/svg">
<path d="M3 4.8C2.84098 4.79775 2.68311 4.82713 2.53555 4.88643C2.38798 4.94572 2.25368 5.03376 2.14043 5.14541C2.02719 5.25706 1.93727 5.39011 1.87589 5.53682C1.81451 5.68353 1.78291 5.84097 1.78291 6C1.78291 6.15903 1.81451 6.31648 1.87589 6.46318C1.93727 6.60989 2.02719 6.74294 2.14043 6.85459C2.25368 6.96625 2.38798 7.05428 2.53555 7.11358C2.68311 7.17287 2.84098 7.20225 3 7.2H27C27.159 7.20225 27.3169 7.17287 27.4644 7.11358C27.612 7.05428 27.7463 6.96625 27.8596 6.85459C27.9728 6.74294 28.0627 6.60989 28.1241 6.46318C28.1855 6.31648 28.2171 6.15903 28.2171 6C28.2171 5.84097 28.1855 5.68353 28.1241 5.53682C28.0627 5.39011 27.9728 5.25706 27.8596 5.14541C27.7463 5.03376 27.612 4.94572 27.4644 4.88643C27.3169 4.82713 27.159 4.79775 27 4.8H3ZM3 13.8C2.84098 13.7978 2.68311 13.8271 2.53555 13.8864C2.38798 13.9457 2.25368 14.0338 2.14043 14.1454C2.02719 14.2571 1.93727 14.3901 1.87589 14.5368C1.81451 14.6835 1.78291 14.841 1.78291 15C1.78291 15.159 1.81451 15.3165 1.87589 15.4632C1.93727 15.6099 2.02719 15.7429 2.14043 15.8546C2.25368 15.9662 2.38798 16.0543 2.53555 16.1136C2.68311 16.1729 2.84098 16.2022 3 16.2H27C27.159 16.2022 27.3169 16.1729 27.4644 16.1136C27.612 16.0543 27.7463 15.9662 27.8596 15.8546C27.9728 15.7429 28.0627 15.6099 28.1241 15.4632C28.1855 15.3165 28.2171 15.159 28.2171 15C28.2171 14.841 28.1855 14.6835 28.1241 14.5368C28.0627 14.3901 27.9728 14.2571 27.8596 14.1454C27.7463 14.0338 27.612 13.9457 27.4644 13.8864C27.3169 13.8271 27.159 13.7978 27 13.8H3ZM3 22.8C2.84098 22.7978 2.68311 22.8271 2.53555 22.8864C2.38798 22.9457 2.25368 23.0338 2.14043 23.1454C2.02719 23.2571 1.93727 23.3901 1.87589 23.5368C1.81451 23.6835 1.78291 23.841 1.78291 24C1.78291 24.159 1.81451 24.3165 1.87589 24.4632C1.93727 24.6099 2.02719 24.7429 2.14043 24.8546C2.25368 24.9662 2.38798 25.0543 2.53555 25.1136C2.68311 25.1729 2.84098 25.2022 3 25.2H27C27.159 25.2022 27.3169 25.1729 27.4644 25.1136C27.612 25.0543 27.7463 24.9662 27.8596 24.8546C27.9728 24.7429 28.0627 24.6099 28.1241 24.4632C28.1855 24.3165 28.2171 24.159 28.2171 24C28.2171 23.841 28.1855 23.6835 28.1241 23.5368C28.0627 23.3901 27.9728 23.2571 27.8596 23.1454C27.7463 23.0338 27.612 22.9457 27.4644 22.8864C27.3169 22.8271 27.159 22.7978 27 22.8H3Z" fill="#D9D9D9"/>
</svg>
