<svg width="21" height="21" viewBox="0 0 21 21" fill="none" xmlns="http://www.w3.org/2000/svg">
<path d="M8.81999 1.26C4.87265 1.26 1.67999 4.45266 1.67999 8.4C1.67999 12.3473 4.87265 15.54 8.81999 15.54C10.2293 15.54 11.5336 15.1266 12.6394 14.4244L17.7975 19.5825L19.5825 17.7975L14.49 12.7181C15.4055 11.5172 15.96 10.0291 15.96 8.4C15.96 4.45266 12.7673 1.26 8.81999 1.26ZM8.81999 2.94C11.8437 2.94 14.28 5.37633 14.28 8.4C14.28 11.4237 11.8437 13.86 8.81999 13.86C5.79632 13.86 3.35999 11.4237 3.35999 8.4C3.35999 5.37633 5.79632 2.94 8.81999 2.94Z" fill="black"/>
</svg>
