<svg width="35" height="35" viewBox="0 0 35 35" fill="none" xmlns="http://www.w3.org/2000/svg">
<path d="M14.7 2.1001C8.13609 2.1001 2.79999 7.4362 2.79999 14.0001C2.79999 20.564 8.13609 25.9001 14.7 25.9001C17.2987 25.9001 19.6974 25.0539 21.6562 23.636L30.8601 32.8399L32.8398 30.8603L23.7207 21.7411C25.5105 19.6582 26.6 16.9566 26.6 14.0001C26.6 7.4362 21.2639 2.1001 14.7 2.1001ZM14.7 3.5001C20.5073 3.5001 25.2 8.19282 25.2 14.0001C25.2 19.8074 20.5073 24.5001 14.7 24.5001C8.8927 24.5001 4.19999 19.8074 4.19999 14.0001C4.19999 8.19282 8.8927 3.5001 14.7 3.5001Z" fill="white"/>
</svg>
