<svg width="135" height="41" viewBox="0 0 135 41" fill="none" xmlns="http://www.w3.org/2000/svg">
<path d="M30.3071 10.0578V22.7451C30.3071 22.9508 30.2262 23.148 30.0822 23.2935C29.9381 23.4389 29.7428 23.5206 29.5391 23.5206H25.5723C25.3687 23.5205 25.1734 23.4388 25.0293 23.2934C24.8853 23.148 24.8044 22.9508 24.8043 22.7451V2.10855C24.8043 1.90289 24.8852 1.70565 25.0292 1.56023C25.1733 1.41481 25.3686 1.33311 25.5723 1.33311H29.2431C29.4468 1.33311 29.6422 1.41481 29.7862 1.56023C29.9302 1.70565 30.0111 1.90289 30.0111 2.10855V5.01472C30.0111 5.01472 31.3233 0.869146 35.2176 0.869146C35.2176 0.869146 39.0696 0.39903 40.6358 4.71556C40.6358 4.71556 41.948 0.869146 45.9269 0.869146C45.9269 0.869146 51.8442 0.513909 51.8442 6.69586L51.8893 10.1005V22.7879C51.8893 22.9935 51.8084 23.1908 51.6643 23.3362C51.5203 23.4816 51.3249 23.5633 51.1213 23.5633H47.1542C46.9505 23.5632 46.7552 23.4815 46.6112 23.3361C46.4672 23.1907 46.3862 22.9935 46.3861 22.7879L46.3499 8.94661C46.4627 5.81238 43.9514 6.04043 43.9514 6.04043C40.7909 6.09753 41.095 10.1005 41.095 10.1005V22.7879C41.095 22.9935 41.0141 23.1908 40.87 23.3362C40.726 23.4816 40.5306 23.5633 40.3269 23.5633H36.3602C36.1565 23.5632 35.9612 23.4815 35.8172 23.3361C35.6732 23.1907 35.5923 22.9935 35.5922 22.7879V9.25979C35.5922 9.25979 35.8241 6.01171 33.002 6.01171C33.0023 6.01171 30.2086 5.64143 30.3071 10.0578ZM132.559 10.0198V22.7068C132.559 22.9125 132.478 23.1097 132.334 23.2551C132.19 23.4005 131.995 23.4822 131.791 23.4823L127.666 23.563C127.462 23.5629 127.267 23.4812 127.123 23.3357C126.979 23.1903 126.898 22.9932 126.898 22.7875V9.25979C126.898 9.25979 127.13 6.01171 124.308 6.01171C124.308 6.01171 121.613 5.87769 121.613 10.9703V22.7448C121.613 22.9504 121.532 23.1476 121.388 23.293C121.244 23.4384 121.048 23.5201 120.845 23.5202H116.878C116.674 23.5201 116.479 23.4384 116.335 23.293C116.191 23.1476 116.11 22.9504 116.11 22.7448V2.10855C116.11 1.90291 116.191 1.70573 116.335 1.56033C116.479 1.41493 116.674 1.3332 116.878 1.33311H120.548C120.752 1.33311 120.947 1.41481 121.091 1.56023C121.235 1.70565 121.316 1.90289 121.316 2.10855V5.01472C121.316 5.01472 122.629 0.869146 126.523 0.869146C126.523 0.869146 130.695 0.23013 132.1 4.63521C132.1 4.63487 132.559 5.54365 132.559 10.0198ZM103.918 0.783671C98.845 0.783671 94.7323 5.1002 94.7323 12.3656C94.7323 18.7623 97.907 23.9476 103.918 23.9476C109.59 23.9476 113.103 18.7623 113.103 12.3656C113.103 5.22841 108.991 0.783671 103.918 0.783671ZM107.12 12.6221C107.12 15.3573 106.781 16.8104 106.781 16.8104C106.299 19.7019 104.22 19.706 103.914 19.6906C103.583 19.7039 101.486 19.6738 101.053 16.8104C101.053 16.8104 100.714 15.3573 100.714 12.6221V12.1663C100.714 9.43108 101.053 7.978 101.053 7.978C101.486 5.11456 103.583 5.08447 103.914 5.09746C104.22 5.08208 106.299 5.08584 106.781 7.978C106.781 7.978 107.12 9.43108 107.12 12.1663V12.6221ZM92.4299 4.986V2.02512C92.4298 1.81949 92.3489 1.62231 92.2048 1.4769C92.0608 1.3315 91.8655 1.24978 91.6619 1.24968H78.5499C78.3463 1.24968 78.1509 1.33138 78.0069 1.4768C77.8628 1.62223 77.7819 1.81946 77.7819 2.02512V4.96309C77.782 5.16873 77.863 5.36591 78.007 5.51131C78.151 5.65671 78.3463 5.73844 78.5499 5.73853H85.3893L77.2939 17.5957C77.2939 17.5957 76.975 18.0764 76.9855 18.6074V22.2142C76.9855 22.2142 76.9326 23.4508 78.3217 22.7332C78.3217 22.7332 80.789 21.2281 84.9261 21.2281C84.9261 21.2281 89.0117 21.1768 91.7357 22.8628C91.7357 22.8628 92.8664 23.3818 92.8664 22.2405V19.1011C92.8664 19.1011 92.969 18.2703 91.8898 17.7516C91.8898 17.7516 88.7547 16.0134 84.6433 16.2986L92.4299 4.986ZM21.7427 19.8301L20.5009 17.9216C20.1057 17.209 20.1342 16.411 20.1342 16.411V7.60737C20.3035 2.8429e-05 11.9504 0.655457 11.9504 0.655457C4.52485 0.655457 3.42801 6.49003 3.42801 6.49003C3.1185 7.6631 4.01859 7.69148 4.01859 7.69148L7.64706 8.06313C7.64706 8.06313 8.26574 8.20605 8.49093 7.46241C8.49093 7.46241 8.96875 4.91694 11.6409 4.91694C14.5484 4.91694 14.5183 7.43642 14.5183 7.43642V9.54562C8.71409 9.74153 6.02432 11.3683 6.02432 11.3683C2.44056 13.4197 2.66609 17.4942 2.66609 17.4942C2.66609 24.1326 8.93082 23.8474 8.93082 23.8474C12.9379 23.8474 15.3083 20.8845 15.3083 20.8845C16.0137 22.1386 17.312 23.3346 17.312 23.3346C17.9615 24.0457 18.6384 23.4488 18.6384 23.4488L21.5734 20.9132C22.2222 20.4284 21.7427 19.8301 21.7427 19.8301ZM10.8864 19.748C9.00159 19.748 8.30096 17.8569 8.61386 15.9984C8.9271 14.1398 10.5539 12.6792 14.5186 12.7219V13.8519C14.6592 18.7883 12.4553 19.748 10.8864 19.748ZM74.4565 19.8301L73.2151 17.9216C72.8199 17.209 72.848 16.411 72.848 16.411V7.60737C73.0173 2.8429e-05 64.6643 0.655457 64.6643 0.655457C57.2387 0.655457 56.1418 6.49003 56.1418 6.49003C55.8323 7.6631 56.7324 7.69148 56.7324 7.69148L60.3609 8.06313C60.3609 8.06313 60.9796 8.20605 61.2048 7.46241C61.2048 7.46241 61.6826 4.91694 64.3547 4.91694C67.2623 4.91694 67.2321 7.43642 67.2321 7.43642V9.54562C61.4283 9.74153 58.7382 11.3683 58.7382 11.3683C55.1544 13.4197 55.3799 17.4942 55.3799 17.4942C55.3799 24.1326 61.6446 23.8474 61.6446 23.8474C65.6517 23.8474 68.0221 20.8845 68.0221 20.8845C68.7279 22.1386 70.0255 23.3346 70.0255 23.3346C70.675 24.0457 71.3523 23.4488 71.3523 23.4488L74.2869 20.9132C74.936 20.4284 74.4565 19.8301 74.4565 19.8301ZM63.6003 19.748C61.7154 19.748 61.0148 17.8569 61.3277 15.9984C61.6409 14.1398 63.2677 12.6792 67.2321 12.7219V13.8519C67.373 18.7883 65.1695 19.748 63.6003 19.748Z" fill="white"/>
<path d="M84.4449 36.4937C84.4449 36.4937 84.1131 37.0767 84.5208 37.2069C84.5208 37.2069 84.9813 37.3885 85.5556 36.8503C85.5556 36.8503 89.7442 33.1561 89.8451 26.4301C89.8451 26.4301 89.8759 25.5901 89.542 25.3603C89.542 25.3603 88.2298 24.1883 83.5113 24.5449C83.5113 24.5449 79.3983 24.8252 77.1528 26.838C77.1528 26.838 76.9509 27.0162 76.9509 27.2452C76.9509 27.2452 76.9025 27.74 78.1368 27.5256C78.1368 27.5256 82.2496 26.9392 84.6972 27.2452C84.6972 27.2452 85.9593 27.3981 86.3125 27.8316C86.3125 27.8316 86.8929 28.3157 86.5898 29.9203C86.5898 29.921 85.7568 33.9971 84.4449 36.4937Z" fill="#F3971B"/>
<path d="M83.6156 30.0409C83.6156 30.0409 84.2299 30.8444 83.2387 31.5375C83.2387 31.5375 72.6506 40.0884 54.8723 40.0884C54.8723 40.0884 36.5719 41 21.291 26.9819C21.291 26.9819 20.7553 26.507 21.0878 26.0656C21.0878 26.0656 21.3851 25.6595 22.1549 26.1012C22.1549 26.1012 36.5295 35.1449 55.4084 35.1449C55.4084 35.1449 68.5305 35.6577 81.9912 29.8454C81.9912 29.8454 83.0636 29.2843 83.6156 30.0409Z" fill="#F3971B"/>
</svg>
