<svg width="148" height="45" viewBox="0 0 148 45" fill="none" xmlns="http://www.w3.org/2000/svg">
<g clip-path="url(#clip0_246_89)">
<path d="M19.4302 23.8311L22.2625 24.259C21.7092 25.7923 20.8803 26.9636 19.7757 27.7726C18.6712 28.5817 17.3758 28.9862 15.8897 28.9862C14.2191 28.9862 12.9132 28.4843 11.9719 27.4782C11.0306 26.4722 10.5599 25.0151 10.5599 23.1047C10.5599 21.5543 10.8758 20.1332 11.5055 18.8476C12.1351 17.5599 13.0107 16.575 14.1279 15.8931C15.2452 15.2111 16.4642 14.8701 17.7808 14.8701C19.2584 14.8701 20.4541 15.2662 21.3679 16.0561C22.2816 16.8461 22.818 17.9263 22.9791 19.2903L20.2867 19.5508C20.1383 18.7565 19.8499 18.1804 19.4259 17.8246C18.9998 17.4688 18.4338 17.2888 17.7257 17.2888C16.9497 17.2888 16.2247 17.5239 15.5505 17.9962C14.8763 18.4685 14.3378 19.2055 13.935 20.2073C13.5322 21.2091 13.3287 22.2109 13.3287 23.2085C13.3287 24.3013 13.5916 25.1443 14.1152 25.7394C14.641 26.3345 15.294 26.6332 16.0763 26.6332C16.8034 26.6332 17.4691 26.3981 18.0755 25.9258C18.6818 25.4535 19.1334 24.7567 19.4302 23.8311Z" fill="white"/>
<path d="M33.556 22.6493H28.2729L26.9966 28.7448H24.1833L27.0432 15.101H29.8481L28.7478 20.3683H34.0309L35.1397 15.101H37.9445L35.093 28.7448H32.2797L33.556 22.6493Z" fill="white"/>
<path d="M38.6144 28.7448L41.4743 15.101H44.2792L41.4277 28.7448H38.6144Z" fill="white"/>
<path d="M47.6628 28.7448H44.8495L47.7094 15.101H53.2618C54.2497 15.101 55.0299 15.2174 55.6044 15.4504C56.179 15.6834 56.6348 16.0689 56.9697 16.6047C57.3047 17.1405 57.4722 17.7823 57.4722 18.5257C57.4722 19.214 57.3386 19.8854 57.0715 20.5356C56.8044 21.1879 56.4758 21.7089 56.0878 22.0986C55.6998 22.4905 55.2822 22.787 54.8348 22.9882C54.3875 23.1894 53.7854 23.344 53.0265 23.4499C52.5855 23.5113 51.7587 23.5431 50.5481 23.5431H48.7503L47.6606 28.7469L47.6628 28.7448ZM49.2167 21.2811H50.0838C51.5679 21.2811 52.5579 21.1879 53.0561 21.0016C53.5522 20.8152 53.9444 20.5165 54.2306 20.1078C54.5168 19.699 54.6589 19.2479 54.6589 18.7586C54.6589 18.4304 54.5868 18.1593 54.4405 17.9496C54.2942 17.7378 54.0886 17.5853 53.8257 17.4879C53.5607 17.3926 52.9734 17.3439 52.0597 17.3439H50.0478L49.2189 21.2811H49.2167Z" fill="white"/>
<path d="M74.2374 23.0794H68.9543L67.678 29.1749H64.8647L67.7247 15.5311H70.5295L69.4292 20.7984H74.7123L75.8211 15.5311H78.6259L75.7745 29.1749H72.9612L74.2374 23.0794Z" fill="white"/>
<path d="M82.2788 15.5309H85.0836L83.5381 22.9395L83.1564 24.763C83.131 24.9176 83.1183 25.0638 83.1183 25.2014C83.1183 25.7415 83.3155 26.1863 83.7098 26.5379C84.1041 26.8894 84.6765 27.0631 85.4291 27.0631C86.1054 27.0631 86.6651 26.936 87.1061 26.6819C87.547 26.4277 87.8884 26.0486 88.1301 25.5467C88.3717 25.0447 88.6177 24.1912 88.8657 22.9882L90.4303 15.533H93.2351L91.679 22.9967C91.3504 24.5661 90.9709 25.7669 90.5427 26.5993C90.1144 27.4316 89.4657 28.1073 88.5965 28.6283C87.7273 29.1493 86.627 29.4098 85.2977 29.4098C83.7077 29.4098 82.4908 29.0201 81.6449 28.2407C80.8011 27.4613 80.3771 26.4616 80.3771 25.2396C80.3771 24.9854 80.3983 24.7101 80.4428 24.4114C80.4682 24.2124 80.5764 23.649 80.7693 22.7171L82.2788 15.5309Z" fill="white"/>
<path d="M104.938 29.1747H102.32L98.6306 20.0061L96.712 29.1747H94.0938L96.9452 15.5309H99.5719L103.271 24.6614L105.182 15.5309H107.789L104.938 29.1747Z" fill="white"/>
<path d="M114.561 29.1747H111.747L114.132 17.8098H110.125L110.6 15.5288H121.362L120.887 17.8098H116.937L114.561 29.1747Z" fill="white"/>
<path d="M121.092 29.1747L123.944 15.5309H134.071L133.596 17.8119H126.282L125.629 20.9105H132.7L132.225 23.1915H125.154L124.298 26.8958H132.246L131.761 29.1768H121.092V29.1747Z" fill="white"/>
<path d="M137.51 29.1747H134.697L137.557 15.5309H143.622C144.665 15.5309 145.477 15.6389 146.058 15.8528C146.639 16.0667 147.107 16.4586 147.464 17.0304C147.822 17.6023 148 18.2927 148 19.106C148 20.2666 147.652 21.2239 146.957 21.9779C146.262 22.7319 145.208 23.1979 143.798 23.3779C144.158 23.6998 144.496 24.1255 144.814 24.6529C145.441 25.7203 146.141 27.2283 146.91 29.1768H143.891C143.65 28.408 143.175 27.2071 142.467 25.5742C142.081 24.6931 141.672 24.1001 141.237 23.7972C140.97 23.6172 140.504 23.5283 139.84 23.5283H138.693L137.51 29.1768V29.1747ZM139.121 21.4781H140.612C142.121 21.4781 143.122 21.3891 143.616 21.2091C144.11 21.0291 144.496 20.7474 144.775 20.3619C145.055 19.9765 145.195 19.5741 145.195 19.1526C145.195 18.657 144.994 18.2842 144.589 18.0364C144.341 17.8882 143.802 17.814 142.978 17.814H139.884L139.121 21.4802V21.4781Z" fill="white"/>
<path d="M9.98803 2.22077C10.1415 1.2384 9.46874 0.317761 8.48541 0.164454C7.50208 0.0111474 6.58052 0.68323 6.42706 1.66559L0.0199122 42.6809C-0.133547 43.6632 0.539201 44.5839 1.52253 44.7372C2.50587 44.8905 3.42742 44.2184 3.58088 43.2361L9.98803 2.22077Z" fill="#D9D9D9"/>
<path d="M8.07948 3.60051C9.07472 3.60051 9.88152 2.79451 9.88152 1.80026C9.88152 0.806002 9.07472 9.53674e-07 8.07948 9.53674e-07L3.20339 9.53674e-07C2.20815 9.53674e-07 1.40135 0.806002 1.40135 1.80026C1.40135 2.79451 2.20815 3.60051 3.20339 3.60051L8.07948 3.60051Z" fill="#D9D9D9"/>
<path d="M2.99138 34.3107C1.99614 34.3107 1.18935 35.1167 1.18935 36.111C1.18935 37.1052 1.99614 37.9112 2.99138 37.9112H58.3244C59.3197 37.9112 60.1265 37.1052 60.1265 36.111C60.1265 35.1167 59.3197 34.3107 58.3244 34.3107H2.99138Z" fill="#D9D9D9"/>
<path d="M56.6174 35.6805C56.4639 36.6628 57.1367 37.5835 58.12 37.7368C59.1034 37.8901 60.0249 37.218 60.1784 36.2356L61.635 26.9109C61.7885 25.9286 61.1157 25.0079 60.1324 24.8546C59.1491 24.7013 58.2275 25.3734 58.0741 26.3558L56.6174 35.6805Z" fill="#D9D9D9"/>
<path d="M7.44347 5.93025C6.44823 5.93025 5.64143 6.73625 5.64143 7.7305C5.64143 8.72476 6.44823 9.53076 7.44347 9.53076L62.7765 9.53076C63.7717 9.53076 64.5785 8.72476 64.5785 7.7305C64.5785 6.73625 63.7717 5.93025 62.7765 5.93025L7.44347 5.93025Z" fill="#D9D9D9"/>
<path d="M59.6267 16.9267C59.4732 17.909 60.146 18.8297 61.1293 18.983C62.1126 19.1363 63.0342 18.4642 63.1876 17.4819L64.6443 8.15715C64.7977 7.17479 64.125 6.25414 63.1417 6.10084C62.1583 5.94753 61.2368 6.61961 61.0833 7.60198L59.6267 16.9267Z" fill="#D9D9D9"/>
<path d="M47.1024 42.7813C46.9489 43.7637 47.6217 44.6843 48.605 44.8376C49.5883 44.9909 50.5099 44.3188 50.6634 43.3365L51.7277 36.5229C51.8812 35.5406 51.2084 34.6199 50.2251 34.4666C49.2418 34.3133 48.3202 34.9854 48.1668 35.9678L47.1024 42.7813Z" fill="#D9D9D9"/>
<path d="M19.3306 42.7812C19.1771 43.7635 19.8499 44.6842 20.8332 44.8375C21.8165 44.9908 22.7381 44.3187 22.8915 43.3363L23.9559 36.5228C24.1094 35.5404 23.4366 34.6198 22.4533 34.4665C21.47 34.3132 20.5484 34.9852 20.3949 35.9676L19.3306 42.7812Z" fill="#D9D9D9"/>
<path d="M48.7842 44.9005C49.7795 44.9005 50.5863 44.0945 50.5863 43.1002C50.5863 42.1059 49.7795 41.2999 48.7842 41.2999H43.9081C42.9129 41.2999 42.1061 42.1059 42.1061 43.1002C42.1061 44.0945 42.9129 44.9005 43.9081 44.9005H48.7842Z" fill="#D9D9D9"/>
<path d="M36.064 45C37.0592 45 37.866 44.194 37.866 43.1997C37.866 42.2055 37.0592 41.3995 36.064 41.3995H21.1241C20.1289 41.3995 19.3221 42.2055 19.3221 43.1997C19.3221 44.194 20.1289 45 21.1241 45H36.064Z" fill="#D9D9D9"/>
</g>
<defs>
<clipPath id="clip0_246_89">
<rect width="148" height="45" fill="white"/>
</clipPath>
</defs>
</svg>
